<svg width="120" height="49" viewBox="0 0 120 49" fill="none" xmlns="http://www.w3.org/2000/svg">
<rect y="0.778564" width="120" height="48" rx="4" fill="black"/>
<g clip-path="url(#clip0_404_23653)">
<path d="M100.242 8.77853H19.762C19.4687 8.77853 19.1788 8.77853 18.8862 8.78013C18.6413 8.78173 18.3983 8.78638 18.1511 8.79029C17.6139 8.79661 17.078 8.84387 16.548 8.93166C16.0187 9.02136 15.506 9.19046 15.0273 9.43326C14.5491 9.67811 14.1122 9.99627 13.7323 10.3762C13.3505 10.755 13.0322 11.1929 12.7898 11.6731C12.5466 12.1522 12.378 12.6657 12.2898 13.1957C12.2007 13.7251 12.1528 14.2605 12.1464 14.7973C12.139 15.0426 12.1382 15.2887 12.1343 15.534V34.0254C12.1382 34.2738 12.139 34.5145 12.1464 34.7629C12.1528 35.2997 12.2007 35.8351 12.2898 36.3645C12.3777 36.8948 12.5464 37.4086 12.7898 37.8879C13.0321 38.3665 13.3505 38.8026 13.7323 39.1793C14.1107 39.5609 14.5479 39.8793 15.0273 40.1223C15.506 40.3657 16.0186 40.5359 16.548 40.6269C17.0781 40.714 17.6139 40.7613 18.1511 40.7684C18.3983 40.7738 18.6413 40.7769 18.8862 40.7769C19.1788 40.7785 19.4687 40.7785 19.762 40.7785H100.242C100.53 40.7785 100.822 40.7785 101.109 40.7769C101.353 40.7769 101.603 40.7738 101.847 40.7684C102.383 40.7617 102.918 40.7144 103.447 40.6269C103.978 40.5352 104.492 40.3651 104.973 40.1223C105.452 39.8792 105.889 39.5608 106.267 39.1793C106.648 38.8011 106.967 38.3653 107.212 37.8879C107.454 37.4082 107.621 36.8945 107.708 36.3645C107.797 35.835 107.847 35.2997 107.856 34.7629C107.859 34.5145 107.859 34.2738 107.859 34.0254C107.866 33.7348 107.866 33.4457 107.866 33.1504V16.4074C107.866 16.1145 107.866 15.8238 107.859 15.534C107.859 15.2887 107.859 15.0426 107.856 14.7973C107.847 14.2605 107.797 13.7251 107.708 13.1957C107.621 12.666 107.454 12.1525 107.212 11.673C106.719 10.7107 105.936 9.92735 104.973 9.43319C104.492 9.19099 103.978 9.02192 103.447 8.93159C102.918 8.84341 102.383 8.79614 101.847 8.79018C101.603 8.78628 101.353 8.78159 101.109 8.78003C100.822 8.77843 100.53 8.77843 100.242 8.77843V8.77853Z" fill="black"/>
<path d="M31.9487 25.0214C31.9573 24.3536 32.1347 23.6989 32.4643 23.1182C32.7939 22.5374 33.2651 22.0495 33.8339 21.6997C33.4725 21.1836 32.9958 20.7588 32.4415 20.4592C31.8873 20.1596 31.2708 19.9933 30.641 19.9736C29.2976 19.8326 27.9953 20.7774 27.3107 20.7774C26.6129 20.7774 25.5589 19.9876 24.4239 20.0109C23.6898 20.0346 22.9743 20.2481 22.3472 20.6306C21.7201 21.013 21.2027 21.5514 20.8456 22.1932C19.2984 24.872 20.4524 28.8088 21.9345 30.9741C22.676 32.0344 23.5427 33.2187 24.6766 33.1767C25.7863 33.1307 26.2007 32.4691 27.5401 32.4691C28.8671 32.4691 29.256 33.1767 30.4129 33.15C31.6036 33.1307 32.3538 32.085 33.0693 31.0147C33.6021 30.2592 34.0121 29.4242 34.2841 28.5407C33.5923 28.2481 33.002 27.7584 32.5867 27.1325C32.1714 26.5067 31.9495 25.7725 31.9487 25.0214Z" fill="white"/>
<path d="M29.7628 18.5496C30.412 17.7702 30.7318 16.7685 30.6544 15.7571C29.6625 15.8613 28.7463 16.3353 28.0883 17.0848C27.7666 17.4509 27.5202 17.8768 27.3632 18.3383C27.2062 18.7997 27.1417 19.2875 27.1734 19.7739C27.6695 19.779 28.1603 19.6715 28.6088 19.4594C29.0573 19.2473 29.4519 18.9362 29.7628 18.5496Z" fill="white"/>
<path d="M45.9753 30.4905H42.1886L41.2792 33.1756H39.6753L43.262 23.2412H44.9284L48.5151 33.1756H46.8839L45.9753 30.4905ZM42.5808 29.2514H45.5824L44.1027 24.8936H44.0613L42.5808 29.2514Z" fill="white"/>
<path d="M56.2616 29.5547C56.2616 31.8055 55.057 33.2516 53.239 33.2516C52.7785 33.2757 52.3205 33.1696 51.9174 32.9455C51.5144 32.7214 51.1826 32.3883 50.9601 31.9844H50.9257V35.5719H49.439V25.9328H50.8781V27.1375H50.9054C51.1382 26.7355 51.4755 26.4042 51.8816 26.1787C52.2878 25.9532 52.7474 25.8421 53.2116 25.857C55.0499 25.8571 56.2616 27.3102 56.2616 29.5547ZM54.7335 29.5547C54.7335 28.0883 53.9757 27.1242 52.8195 27.1242C51.6835 27.1242 50.9195 28.1086 50.9195 29.5547C50.9195 31.0141 51.6835 31.9914 52.8195 31.9914C53.9757 31.9914 54.7335 31.0344 54.7335 29.5547Z" fill="white"/>
<path d="M64.2323 29.5547C64.2323 31.8055 63.0277 33.2516 61.2097 33.2516C60.7492 33.2757 60.2912 33.1696 59.8881 32.9455C59.4851 32.7214 59.1533 32.3883 58.9308 31.9844H58.8964V35.5719H57.4097V25.9328H58.8487V27.1375H58.8761C59.1088 26.7355 59.4462 26.4042 59.8523 26.1787C60.2584 25.9532 60.7181 25.8421 61.1823 25.857C63.0206 25.857 64.2323 27.3102 64.2323 29.5547ZM62.7042 29.5547C62.7042 28.0883 61.9464 27.1242 60.7902 27.1242C59.6542 27.1242 58.8902 28.1086 58.8902 29.5547C58.8902 31.0141 59.6542 31.9914 60.7902 31.9914C61.9464 31.9914 62.7042 31.0344 62.7042 29.5547H62.7042Z" fill="white"/>
<path d="M69.5019 30.4073C69.612 31.3925 70.5691 32.0393 71.8769 32.0393C73.13 32.0393 74.0316 31.3924 74.0316 30.5041C74.0316 29.733 73.4878 29.2713 72.2003 28.9549L70.9128 28.6448C69.0886 28.2041 68.2417 27.351 68.2417 25.9666C68.2417 24.2526 69.7355 23.0752 71.8566 23.0752C73.9558 23.0752 75.3948 24.2526 75.4433 25.9666H73.9425C73.8526 24.9752 73.0331 24.3768 71.8355 24.3768C70.6378 24.3768 69.8183 24.9823 69.8183 25.8635C69.8183 26.5659 70.3417 26.9791 71.6222 27.2955L72.7167 27.5643C74.755 28.0463 75.6019 28.8651 75.6019 30.3182C75.6019 32.1768 74.1214 33.3408 71.7667 33.3408C69.5636 33.3408 68.0761 32.2041 67.98 30.4072L69.5019 30.4073Z" fill="white"/>
<path d="M78.8101 24.218V25.9321H80.1874V27.1094H78.8101V31.1024C78.8101 31.7227 79.0858 32.0118 79.6913 32.0118C79.8548 32.0089 80.0181 31.9974 80.1804 31.9774V33.1477C79.9081 33.1985 79.6315 33.2216 79.3546 33.2164C77.8882 33.2164 77.3163 32.6656 77.3163 31.261V27.1094H76.2632V25.9321H77.3163V24.218H78.8101Z" fill="white"/>
<path d="M80.9858 29.5537C80.9858 27.2748 82.328 25.8428 84.421 25.8428C86.521 25.8428 87.8569 27.2748 87.8569 29.5537C87.8569 31.8389 86.528 33.2647 84.421 33.2647C82.3147 33.2647 80.9858 31.8389 80.9858 29.5537ZM86.3421 29.5537C86.3421 27.9905 85.6257 27.0678 84.421 27.0678C83.2163 27.0678 82.5007 27.9975 82.5007 29.5537C82.5007 31.1233 83.2163 32.0389 84.421 32.0389C85.6257 32.0389 86.3421 31.1233 86.3421 29.5537H86.3421Z" fill="white"/>
<path d="M89.0815 25.9328H90.4995V27.1656H90.5339C90.6299 26.7805 90.8554 26.4403 91.1727 26.202C91.49 25.9637 91.8796 25.8418 92.2761 25.857C92.4474 25.8564 92.6183 25.875 92.7855 25.9124V27.3031C92.5692 27.237 92.3436 27.2066 92.1175 27.2132C91.9015 27.2045 91.6862 27.2425 91.4863 27.3249C91.2864 27.4072 91.1067 27.5318 90.9596 27.6901C90.8124 27.8484 90.7012 28.0367 90.6337 28.242C90.5661 28.4473 90.5438 28.6649 90.5683 28.8796V33.1757H89.0815L89.0815 25.9328Z" fill="white"/>
<path d="M99.6405 31.0477C99.4405 32.3625 98.1601 33.2649 96.5218 33.2649C94.4147 33.2649 93.1069 31.8532 93.1069 29.5883C93.1069 27.3165 94.4218 25.843 96.4593 25.843C98.4632 25.843 99.7233 27.2196 99.7233 29.4157V29.925H94.6077V30.0149C94.5841 30.2815 94.6175 30.55 94.7056 30.8027C94.7938 31.0553 94.9347 31.2864 95.1189 31.4804C95.3032 31.6744 95.5267 31.827 95.7745 31.9281C96.0223 32.0291 96.2887 32.0763 96.5562 32.0664C96.9075 32.0994 97.2601 32.018 97.5614 31.8344C97.8628 31.6509 98.0969 31.375 98.2288 31.0477L99.6405 31.0477ZM94.6147 28.886H98.2358C98.2492 28.6463 98.2129 28.4065 98.1291 28.1815C98.0454 27.9565 97.916 27.7513 97.7492 27.5787C97.5824 27.4061 97.3817 27.2698 97.1597 27.1784C96.9377 27.0871 96.6993 27.0425 96.4593 27.0477C96.2172 27.0463 95.9772 27.0928 95.7531 27.1846C95.5291 27.2764 95.3255 27.4116 95.154 27.5825C94.9825 27.7534 94.8466 27.9566 94.754 28.1803C94.6615 28.404 94.6141 28.6439 94.6147 28.886V28.886Z" fill="white"/>
<path d="M42.3936 15.7654C42.7053 15.7431 43.0181 15.7901 43.3094 15.9033C43.6007 16.0164 43.8632 16.1928 44.0781 16.4197C44.293 16.6466 44.4548 16.9184 44.5519 17.2154C44.6491 17.5124 44.679 17.8273 44.6397 18.1373C44.6397 19.6623 43.8155 20.5389 42.3936 20.5389H40.6694V15.7654H42.3936ZM41.4108 19.8638H42.3108C42.5336 19.8771 42.7564 19.8406 42.9633 19.7569C43.1701 19.6732 43.3557 19.5445 43.5065 19.38C43.6573 19.2156 43.7695 19.0196 43.835 18.8063C43.9005 18.593 43.9176 18.3678 43.885 18.147C43.9152 17.9272 43.8964 17.7033 43.8299 17.4916C43.7634 17.2799 43.6509 17.0855 43.5004 16.9223C43.35 16.7592 43.1653 16.6313 42.9596 16.548C42.754 16.4646 42.5324 16.4277 42.3108 16.44H41.4108V19.8638Z" fill="white"/>
<path d="M45.4783 18.7365C45.4556 18.4998 45.4827 18.2609 45.5578 18.0353C45.6328 17.8096 45.7542 17.6022 45.9142 17.4262C46.0741 17.2502 46.2691 17.1096 46.4866 17.0134C46.7041 16.9171 46.9393 16.8674 47.1771 16.8674C47.4149 16.8674 47.6501 16.9171 47.8676 17.0134C48.085 17.1096 48.28 17.2502 48.44 17.4262C48.5999 17.6022 48.7213 17.8096 48.7964 18.0353C48.8715 18.2609 48.8986 18.4998 48.8759 18.7365C48.899 18.9735 48.8722 19.2127 48.7974 19.4387C48.7225 19.6647 48.6011 19.8726 48.4412 20.0489C48.2812 20.2253 48.086 20.3662 47.8683 20.4626C47.6506 20.559 47.4152 20.6088 47.1771 20.6088C46.939 20.6088 46.7035 20.559 46.4858 20.4626C46.2681 20.3662 46.073 20.2253 45.913 20.0489C45.753 19.8726 45.6317 19.6647 45.5568 19.4387C45.4819 19.2127 45.4552 18.9735 45.4783 18.7365ZM48.1447 18.7365C48.1447 17.9557 47.7939 17.499 47.1783 17.499C46.5603 17.499 46.2127 17.9557 46.2127 18.7365C46.2127 19.5237 46.5603 19.9768 47.1783 19.9768C47.7939 19.9768 48.1447 19.5205 48.1447 18.7365H48.1447Z" fill="white"/>
<path d="M53.3913 20.5391H52.6538L51.9093 17.886H51.853L51.1116 20.5391H50.3812L49.3882 16.9368H50.1093L50.7546 19.6856H50.8077L51.5483 16.9368H52.2304L52.971 19.6856H53.0272L53.6694 16.9368H54.3804L53.3913 20.5391Z" fill="white"/>
<path d="M55.2163 16.9366H55.9007V17.5089H55.9538C56.0439 17.3033 56.1959 17.131 56.3886 17.016C56.5813 16.9009 56.8051 16.8489 57.0288 16.8671C57.2041 16.8539 57.3801 16.8803 57.5438 16.9444C57.7074 17.0085 57.8546 17.1086 57.9744 17.2372C58.0941 17.3659 58.1834 17.5199 58.2355 17.6877C58.2877 17.8556 58.3014 18.033 58.2757 18.2069V20.5389H57.5647V18.3854C57.5647 17.8065 57.3132 17.5186 56.7874 17.5186C56.6684 17.5131 56.5496 17.5334 56.4392 17.578C56.3287 17.6227 56.2292 17.6907 56.1475 17.7774C56.0658 17.8641 56.0038 17.9675 55.9658 18.0804C55.9278 18.1933 55.9146 18.3131 55.9272 18.4315V20.539H55.2163L55.2163 16.9366Z" fill="white"/>
<path d="M59.4077 15.5305H60.1187V20.5391H59.4077V15.5305Z" fill="white"/>
<path d="M61.1071 18.7366C61.0845 18.4999 61.1116 18.261 61.1867 18.0353C61.2618 17.8097 61.3832 17.6022 61.5432 17.4262C61.7032 17.2502 61.8981 17.1096 62.1156 17.0134C62.3331 16.9171 62.5683 16.8674 62.8062 16.8674C63.044 16.8674 63.2792 16.9171 63.4967 17.0134C63.7142 17.1096 63.9092 17.2502 64.0691 17.4262C64.2291 17.6022 64.3505 17.8097 64.4256 18.0353C64.5007 18.261 64.5278 18.4999 64.5052 18.7366C64.5282 18.9736 64.5015 19.2128 64.4266 19.4388C64.3517 19.6648 64.2303 19.8727 64.0703 20.049C63.9103 20.2253 63.7152 20.3662 63.4974 20.4626C63.2797 20.5591 63.0443 20.6089 62.8062 20.6089C62.5681 20.6089 62.3326 20.5591 62.1149 20.4626C61.8972 20.3662 61.702 20.2253 61.542 20.049C61.382 19.8727 61.2607 19.6648 61.1858 19.4388C61.1109 19.2128 61.0841 18.9736 61.1071 18.7366ZM63.7735 18.7366C63.7735 17.9557 63.4228 17.4991 62.8071 17.4991C62.1892 17.4991 61.8415 17.9557 61.8415 18.7366C61.8415 19.5237 62.1892 19.9768 62.8071 19.9768C63.4228 19.9768 63.7735 19.5206 63.7735 18.7366H63.7735Z" fill="white"/>
<path d="M65.2534 19.5206C65.2534 18.8721 65.7362 18.4983 66.5933 18.4452L67.569 18.3889V18.078C67.569 17.6975 67.3175 17.4827 66.8315 17.4827C66.4347 17.4827 66.1597 17.6284 66.0808 17.8831H65.3925C65.4651 17.2643 66.0472 16.8674 66.8644 16.8674C67.7675 16.8674 68.2769 17.317 68.2769 18.078V20.5393H67.5925V20.0331H67.5362C67.4221 20.2146 67.2617 20.3627 67.0716 20.4621C66.8815 20.5614 66.6685 20.6086 66.4542 20.5987C66.303 20.6144 66.1501 20.5983 66.0055 20.5513C65.8609 20.5043 65.7277 20.4276 65.6146 20.326C65.5015 20.2244 65.4109 20.1003 65.3487 19.9616C65.2865 19.8228 65.254 19.6726 65.2534 19.5206ZM67.569 19.2127V18.9116L66.6894 18.9678C66.1933 19.001 65.9683 19.1698 65.9683 19.4873C65.9683 19.8116 66.2495 20.0002 66.6363 20.0002C66.7496 20.0117 66.864 20.0003 66.9728 19.9666C67.0816 19.9329 67.1826 19.8777 67.2696 19.8042C67.3566 19.7308 67.428 19.6405 67.4794 19.5389C67.5309 19.4373 67.5613 19.3264 67.569 19.2127Z" fill="white"/>
<path d="M69.2104 18.7364C69.2104 17.5981 69.7956 16.877 70.7058 16.877C70.9309 16.8666 71.1543 16.9206 71.35 17.0325C71.5456 17.1444 71.7053 17.3097 71.8104 17.509H71.8636V15.5305H72.5745V20.5391H71.8933V19.97H71.837C71.7237 20.168 71.5584 20.3312 71.359 20.442C71.1596 20.5528 70.9337 20.6069 70.7058 20.5985C69.7894 20.5985 69.2104 19.8774 69.2104 18.7364ZM69.9448 18.7364C69.9448 19.5005 70.305 19.9602 70.9074 19.9602C71.5066 19.9602 71.8769 19.4938 71.8769 18.7395C71.8769 17.9887 71.5027 17.5157 70.9074 17.5157C70.3089 17.5157 69.9448 17.9786 69.9448 18.7364H69.9448Z" fill="white"/>
<path d="M75.5173 18.7365C75.4947 18.4998 75.5217 18.2609 75.5968 18.0353C75.6719 17.8096 75.7933 17.6022 75.9533 17.4262C76.1132 17.2502 76.3082 17.1096 76.5257 17.0134C76.7431 16.9171 76.9783 16.8674 77.2161 16.8674C77.454 16.8674 77.6891 16.9171 77.9066 17.0134C78.1241 17.1096 78.3191 17.2502 78.479 17.4262C78.639 17.6022 78.7604 17.8096 78.8355 18.0353C78.9105 18.2609 78.9376 18.4998 78.915 18.7365C78.938 18.9735 78.9113 19.2127 78.8364 19.4387C78.7615 19.6647 78.6402 19.8726 78.4802 20.0489C78.3202 20.2253 78.1251 20.3662 77.9074 20.4626C77.6897 20.559 77.4542 20.6088 77.2161 20.6088C76.978 20.6088 76.7426 20.559 76.5249 20.4626C76.3072 20.3662 76.1121 20.2253 75.9521 20.0489C75.7921 19.8726 75.6707 19.6647 75.5959 19.4387C75.521 19.2127 75.4942 18.9735 75.5173 18.7365ZM78.1837 18.7365C78.1837 17.9557 77.8329 17.499 77.2173 17.499C76.5993 17.499 76.2517 17.9557 76.2517 18.7365C76.2517 19.5237 76.5994 19.9768 77.2173 19.9768C77.8329 19.9768 78.1837 19.5205 78.1837 18.7365Z" fill="white"/>
<path d="M79.8687 16.9366H80.553V17.5089H80.6062C80.6963 17.3033 80.8483 17.131 81.041 17.016C81.2337 16.9009 81.4575 16.8489 81.6812 16.8671C81.8564 16.8539 82.0324 16.8803 82.1961 16.9444C82.3598 17.0085 82.507 17.1086 82.6267 17.2372C82.7464 17.3659 82.8357 17.5199 82.8879 17.6877C82.94 17.8556 82.9538 18.033 82.928 18.2069V20.5389H82.2171V18.3854C82.2171 17.8065 81.9655 17.5186 81.4398 17.5186C81.3207 17.5131 81.2019 17.5334 81.0915 17.578C80.9811 17.6227 80.8816 17.6907 80.7999 17.7774C80.7182 17.8641 80.6562 17.9675 80.6182 18.0804C80.5801 18.1933 80.567 18.3131 80.5796 18.4315V20.539H79.8687V16.9366Z" fill="white"/>
<path d="M86.9452 16.0403V16.9536H87.7257V17.5524H86.9452V19.4047C86.9452 19.7821 87.1007 19.9473 87.4546 19.9473C87.5452 19.947 87.6357 19.9415 87.7257 19.9309V20.5231C87.598 20.5459 87.4687 20.5581 87.339 20.5594C86.5483 20.5594 86.2335 20.2813 86.2335 19.5868V17.5524H85.6616V16.9535H86.2335V16.0403H86.9452Z" fill="white"/>
<path d="M88.6968 15.5305H89.4015V17.5157H89.4577C89.5522 17.3082 89.7084 17.1349 89.905 17.0195C90.1015 16.904 90.3289 16.8519 90.5561 16.8704C90.7305 16.8609 90.9048 16.89 91.0666 16.9556C91.2284 17.0213 91.3738 17.1218 91.4923 17.2501C91.6108 17.3783 91.6995 17.5312 91.7521 17.6977C91.8048 17.8642 91.82 18.0403 91.7967 18.2133V20.5391H91.0851V18.3887C91.0851 17.8133 90.8171 17.5219 90.3148 17.5219C90.1926 17.5119 90.0697 17.5287 89.9547 17.5711C89.8396 17.6136 89.7353 17.6806 89.6489 17.7676C89.5625 17.8546 89.4961 17.9594 89.4545 18.0747C89.4128 18.1901 89.3969 18.3131 89.4077 18.4352V20.5391H88.6968L88.6968 15.5305Z" fill="white"/>
<path d="M95.941 19.5667C95.8445 19.8959 95.6352 20.1807 95.3498 20.3712C95.0645 20.5618 94.7212 20.6459 94.3801 20.6089C94.1428 20.6152 93.9069 20.5697 93.6889 20.4757C93.4709 20.3817 93.276 20.2413 93.1177 20.0644C92.9593 19.8875 92.8414 19.6783 92.7721 19.4512C92.7027 19.2241 92.6836 18.9847 92.716 18.7495C92.6844 18.5136 92.7039 18.2737 92.7731 18.0459C92.8423 17.8182 92.9596 17.608 93.1171 17.4295C93.2746 17.2511 93.4686 17.1085 93.6859 17.0116C93.9033 16.9146 94.139 16.8655 94.377 16.8675C95.3793 16.8675 95.984 17.5523 95.984 18.6835V18.9316H93.4403V18.9714C93.4291 19.1036 93.4457 19.2367 93.489 19.3621C93.5323 19.4875 93.6014 19.6024 93.6917 19.6996C93.782 19.7968 93.8917 19.874 94.0136 19.9263C94.1355 19.9786 94.267 20.0049 94.3996 20.0034C94.5697 20.0238 94.742 19.9932 94.8946 19.9154C95.0472 19.8377 95.1732 19.7163 95.2567 19.5667L95.941 19.5667ZM93.4402 18.4058H95.2598C95.2687 18.2849 95.2523 18.1634 95.2115 18.0493C95.1708 17.9351 95.1066 17.8307 95.0231 17.7428C94.9396 17.6549 94.8386 17.5855 94.7266 17.5389C94.6147 17.4924 94.4943 17.4698 94.3731 17.4726C94.2501 17.471 94.1281 17.4941 94.0142 17.5405C93.9003 17.5868 93.7968 17.6555 93.7099 17.7425C93.6229 17.8295 93.5543 17.9329 93.508 18.0469C93.4617 18.1608 93.4387 18.2828 93.4403 18.4058H93.4402Z" fill="white"/>
</g>
<defs>
<clipPath id="clip0_404_23653">
<rect width="95.7313" height="32" fill="white" transform="translate(12.1343 8.77856)"/>
</clipPath>
</defs>
</svg>
