<svg width="120" height="49" viewBox="0 0 120 49" fill="none" xmlns="http://www.w3.org/2000/svg">
<rect y="0.778564" width="120" height="48" rx="4" fill="black"/>
<g clip-path="url(#clip0_404_23689)">
<path d="M110 8.77856H10C7.79086 8.77856 6 10.5694 6 12.7786V36.7786C6 38.9877 7.79086 40.7786 10 40.7786H110C112.209 40.7786 114 38.9877 114 36.7786V12.7786C114 10.5694 112.209 8.77856 110 8.77856Z" fill="black"/>
<path d="M45.7911 14.3438C45.7579 14.2419 45.714 14.1506 45.6595 14.0699C45.606 13.9881 45.5419 13.9185 45.4673 13.861C45.3936 13.8035 45.3098 13.7596 45.216 13.7293C45.1222 13.6991 45.0193 13.6839 44.9073 13.6839C44.7236 13.6839 44.5566 13.7314 44.4063 13.8262C44.2559 13.921 44.1364 14.0608 44.0476 14.2454C43.9588 14.4301 43.9144 14.6566 43.9144 14.925C43.9144 15.1934 43.9593 15.4199 44.0491 15.6046C44.1389 15.7892 44.2605 15.929 44.4138 16.0238C44.5672 16.1187 44.7398 16.1661 44.9315 16.1661C45.1091 16.1661 45.2655 16.1283 45.4007 16.0526C45.5369 15.9759 45.6428 15.8679 45.7185 15.7287C45.7952 15.5884 45.8335 15.4235 45.8335 15.2338L45.9486 15.258H45.0162V14.925H46.1968V15.258C46.1968 15.5133 46.1423 15.7352 46.0333 15.9239C45.9253 16.1126 45.776 16.2589 45.5853 16.3629C45.3956 16.4658 45.1777 16.5172 44.9315 16.5172C44.657 16.5172 44.4159 16.4527 44.208 16.3235C44.0012 16.1943 43.8397 16.0107 43.7237 15.7726C43.6087 15.5345 43.5511 15.2519 43.5511 14.925C43.5511 14.6798 43.5839 14.4594 43.6495 14.2636C43.7161 14.0669 43.81 13.8994 43.931 13.7611C44.0521 13.6229 44.1954 13.5169 44.3609 13.4433C44.5264 13.3696 44.7085 13.3328 44.9073 13.3328C45.0707 13.3328 45.2231 13.3575 45.3643 13.407C45.5066 13.4554 45.6332 13.5245 45.7442 13.6143C45.8562 13.7031 45.9496 13.8096 46.0242 13.9337C46.0989 14.0568 46.1504 14.1935 46.1786 14.3438H45.7911ZM46.8396 16.4749V13.3752H48.7103V13.7081H47.215V14.7555H48.6135V15.0885H47.215V16.1419H48.7346V16.4749H46.8396ZM49.2174 13.7081V13.3752H51.5421V13.7081H50.5674V16.4749H50.1921V13.7081H49.2174ZM53.6955 13.3752V16.4749H53.3201V13.3752H53.6955ZM54.2786 13.7081V13.3752H56.6033V13.7081H55.6286V16.4749H55.2533V13.7081H54.2786ZM60.9967 14.925C60.9967 15.2519 60.9376 15.5345 60.8196 15.7726C60.7015 16.0107 60.5396 16.1943 60.3338 16.3235C60.1279 16.4527 59.8928 16.5172 59.6285 16.5172C59.3641 16.5172 59.129 16.4527 58.9232 16.3235C58.7173 16.1943 58.5554 16.0107 58.4373 15.7726C58.3193 15.5345 58.2602 15.2519 58.2602 14.925C58.2602 14.5981 58.3193 14.3156 58.4373 14.0774C58.5554 13.8393 58.7173 13.6557 58.9232 13.5265C59.129 13.3974 59.3641 13.3328 59.6285 13.3328C59.8928 13.3328 60.1279 13.3974 60.3338 13.5265C60.5396 13.6557 60.7015 13.8393 60.8196 14.0774C60.9376 14.3156 60.9967 14.5981 60.9967 14.925ZM60.6334 14.925C60.6334 14.6566 60.5885 14.4301 60.4987 14.2454C60.4099 14.0608 60.2894 13.921 60.137 13.8262C59.9856 13.7314 59.8161 13.6839 59.6285 13.6839C59.4408 13.6839 59.2708 13.7314 59.1184 13.8262C58.967 13.921 58.8465 14.0608 58.7567 14.2454C58.6679 14.4301 58.6235 14.6566 58.6235 14.925C58.6235 15.1934 58.6679 15.4199 58.7567 15.6046C58.8465 15.7892 58.967 15.929 59.1184 16.0238C59.2708 16.1187 59.4408 16.1661 59.6285 16.1661C59.8161 16.1661 59.9856 16.1187 60.137 16.0238C60.2894 15.929 60.4099 15.7892 60.4987 15.6046C60.5885 15.4199 60.6334 15.1934 60.6334 14.925ZM64.0858 13.3752V16.4749H63.7225L62.0334 14.0411H62.0032V16.4749H61.6278V13.3752H61.9911L63.6862 15.815H63.7165V13.3752H64.0858Z" fill="white"/>
<path d="M45.7911 14.3438L45.7428 14.3596L45.7543 14.3947H45.7911V14.3438ZM45.6595 14.0699L45.6169 14.0977L45.6173 14.0983L45.6595 14.0699ZM45.4673 13.861L45.436 13.9011L45.4362 13.9013L45.4673 13.861ZM45.216 13.7293L45.2316 13.6809H45.2316L45.216 13.7293ZM44.0476 14.2454L44.0934 14.2675L44.0476 14.2454ZM44.0491 15.6046L44.0034 15.6268L44.0491 15.6046ZM45.4007 16.0526L45.4255 16.097L45.4256 16.0969L45.4007 16.0526ZM45.7185 15.7287L45.6739 15.7043L45.6738 15.7044L45.7185 15.7287ZM45.8335 15.2338L45.844 15.184L45.7827 15.1711V15.2338H45.8335ZM45.9486 15.258V15.3088H46.437L45.959 15.2082L45.9486 15.258ZM45.0162 15.258H44.9654V15.3088H45.0162V15.258ZM45.0162 14.925V14.8742H44.9654V14.925H45.0162ZM46.1968 14.925H46.2476V14.8742H46.1968V14.925ZM46.0333 15.9239L45.9893 15.8985L45.9892 15.8987L46.0333 15.9239ZM45.5853 16.3629L45.6096 16.4076L45.6096 16.4075L45.5853 16.3629ZM44.208 16.3235L44.1811 16.3666L44.1812 16.3667L44.208 16.3235ZM43.7237 15.7726L43.6779 15.7947L43.678 15.7949L43.7237 15.7726ZM43.6495 14.2636L43.6013 14.2473L43.6013 14.2475L43.6495 14.2636ZM43.931 13.7611L43.9693 13.7946L43.931 13.7611ZM45.3643 13.407L45.3475 13.455L45.3479 13.4551L45.3643 13.407ZM45.7442 13.6143L45.7122 13.6539L45.7126 13.6542L45.7442 13.6143ZM46.0242 13.9337L45.9806 13.9599L45.9807 13.96L46.0242 13.9337ZM46.1786 14.3438V14.3947H46.2399L46.2286 14.3344L46.1786 14.3438ZM45.8395 14.328C45.8049 14.2221 45.759 14.1264 45.7016 14.0414L45.6173 14.0983C45.6689 14.1748 45.7108 14.2617 45.7428 14.3596L45.8395 14.328ZM45.702 14.042C45.6456 13.9557 45.5776 13.8818 45.4983 13.8207L45.4362 13.9013C45.5062 13.9552 45.5664 14.0206 45.6169 14.0977L45.702 14.042ZM45.4986 13.8209C45.4199 13.7595 45.3308 13.7129 45.2316 13.6809L45.2004 13.7777C45.2889 13.8063 45.3673 13.8475 45.436 13.9011L45.4986 13.8209ZM45.2316 13.6809C45.1321 13.6488 45.0238 13.6331 44.9073 13.6331V13.7348C45.0147 13.7348 45.1122 13.7493 45.2004 13.7777L45.2316 13.6809ZM44.9073 13.6331C44.7143 13.6331 44.5379 13.683 44.3791 13.7832L44.4334 13.8692C44.5754 13.7797 44.7329 13.7348 44.9073 13.7348V13.6331ZM44.3791 13.7832C44.2196 13.8839 44.094 14.0315 44.0017 14.2234L44.0934 14.2675C44.1787 14.0901 44.2923 13.9582 44.4334 13.8692L44.3791 13.7832ZM44.0017 14.2234C43.9088 14.4167 43.8635 14.6513 43.8635 14.925H43.9652C43.9652 14.662 44.0088 14.4435 44.0934 14.2675L44.0017 14.2234ZM43.8635 14.925C43.8635 15.1988 43.9093 15.4335 44.0034 15.6268L44.0948 15.5823C44.0093 15.4064 43.9652 15.188 43.9652 14.925H43.8635ZM44.0034 15.6268C44.0968 15.8189 44.2244 15.9665 44.3871 16.0671L44.4406 15.9806C44.2965 15.8915 44.181 15.7596 44.0948 15.5823L44.0034 15.6268ZM44.3871 16.0671C44.549 16.1672 44.7309 16.217 44.9315 16.217V16.1152C44.7486 16.1152 44.5854 16.0701 44.4406 15.9806L44.3871 16.0671ZM44.9315 16.217C45.1165 16.217 45.2817 16.1775 45.4255 16.097L45.3758 16.0082C45.2493 16.079 45.1016 16.1152 44.9315 16.1152V16.217ZM45.4256 16.0969C45.5703 16.0155 45.683 15.9005 45.7632 15.753L45.6738 15.7044C45.6026 15.8354 45.5035 15.9363 45.3757 16.0083L45.4256 16.0969ZM45.7631 15.7531C45.8446 15.6041 45.8844 15.4304 45.8844 15.2338H45.7827C45.7827 15.4165 45.7458 15.5728 45.6739 15.7043L45.7631 15.7531ZM45.823 15.2835L45.9381 15.3078L45.959 15.2082L45.844 15.184L45.823 15.2835ZM45.9486 15.2071H45.0162V15.3088H45.9486V15.2071ZM45.0671 15.258V14.925H44.9654V15.258H45.0671ZM45.0162 14.9759H46.1968V14.8742H45.0162V14.9759ZM46.1459 14.925V15.258H46.2476V14.925H46.1459ZM46.1459 15.258C46.1459 15.5059 46.0931 15.7188 45.9893 15.8985L46.0774 15.9494C46.1915 15.7517 46.2476 15.5207 46.2476 15.258H46.1459ZM45.9892 15.8987C45.8859 16.0792 45.7434 16.2188 45.561 16.3182L45.6096 16.4075C45.8086 16.2991 45.9648 16.146 46.0775 15.9492L45.9892 15.8987ZM45.5611 16.3181C45.3798 16.4165 45.1704 16.4664 44.9315 16.4664V16.5681C45.1849 16.5681 45.4114 16.5151 45.6096 16.4076L45.5611 16.3181ZM44.9315 16.4664C44.6653 16.4664 44.4337 16.4039 44.2349 16.2803L44.1812 16.3667C44.398 16.5015 44.6487 16.5681 44.9315 16.5681V16.4664ZM44.2349 16.2804C44.0369 16.1567 43.8816 15.9806 43.7694 15.7503L43.678 15.7949C43.7978 16.0408 43.9654 16.232 44.1811 16.3666L44.2349 16.2804ZM43.7695 15.7505C43.6585 15.5207 43.602 15.246 43.602 14.925H43.5003C43.5003 15.2578 43.5588 15.5482 43.6779 15.7947L43.7695 15.7505ZM43.602 14.925C43.602 14.6843 43.6342 14.4694 43.6977 14.2798L43.6013 14.2475C43.5337 14.4493 43.5003 14.6753 43.5003 14.925H43.602ZM43.6977 14.2799C43.7624 14.0887 43.8532 13.9272 43.9693 13.7946L43.8928 13.7276C43.7668 13.8715 43.6698 14.045 43.6013 14.2473L43.6977 14.2799ZM43.9693 13.7946C44.0856 13.6619 44.2229 13.5604 44.3816 13.4897L44.3402 13.3968C44.1679 13.4735 44.0186 13.5839 43.8928 13.7276L43.9693 13.7946ZM44.3816 13.4897C44.5399 13.4193 44.7149 13.3837 44.9073 13.3837V13.2819C44.7021 13.2819 44.5128 13.32 44.3402 13.3968L44.3816 13.4897ZM44.9073 13.3837C45.0655 13.3837 45.2121 13.4076 45.3475 13.455L45.3811 13.359C45.234 13.3075 45.0759 13.2819 44.9073 13.2819V13.3837ZM45.3479 13.4551C45.4849 13.5017 45.6061 13.568 45.7122 13.6538L45.7762 13.5748C45.6603 13.481 45.5284 13.4091 45.3807 13.3588L45.3479 13.4551ZM45.7126 13.6542C45.8198 13.7391 45.9091 13.8409 45.9806 13.9599L46.0678 13.9074C45.99 13.7782 45.8927 13.6671 45.7758 13.5745L45.7126 13.6542ZM45.9807 13.96C46.052 14.0776 46.1014 14.2085 46.1286 14.3532L46.2286 14.3344C46.1993 14.1785 46.1457 14.0359 46.0677 13.9073L45.9807 13.96ZM46.1786 14.293H45.7911V14.3947H46.1786V14.293ZM46.8396 16.4749H46.7888V16.5257H46.8396V16.4749ZM46.8396 13.3752V13.3243H46.7888V13.3752H46.8396ZM48.7103 13.3752H48.7612V13.3243H48.7103V13.3752ZM48.7103 13.7081V13.759H48.7612V13.7081H48.7103ZM47.215 13.7081V13.6573H47.1641V13.7081H47.215ZM47.215 14.7555H47.1641V14.8064H47.215V14.7555ZM48.6135 14.7555H48.6643V14.7046H48.6135V14.7555ZM48.6135 15.0885V15.1393H48.6643V15.0885H48.6135ZM47.215 15.0885V15.0376H47.1641V15.0885H47.215ZM47.215 16.1419H47.1641V16.1927H47.215V16.1419ZM48.7346 16.1419H48.7854V16.091H48.7346V16.1419ZM48.7346 16.4749V16.5257H48.7854V16.4749H48.7346ZM46.8905 16.4749V13.3752H46.7888V16.4749H46.8905ZM46.8396 13.426H48.7103V13.3243H46.8396V13.426ZM48.6595 13.3752V13.7081H48.7612V13.3752H48.6595ZM48.7103 13.6573H47.215V13.759H48.7103V13.6573ZM47.1641 13.7081V14.7555H47.2658V13.7081H47.1641ZM47.215 14.8064H48.6135V14.7046H47.215V14.8064ZM48.5626 14.7555V15.0885H48.6643V14.7555H48.5626ZM48.6135 15.0376H47.215V15.1393H48.6135V15.0376ZM47.1641 15.0885V16.1419H47.2658V15.0885H47.1641ZM47.215 16.1927H48.7346V16.091H47.215V16.1927ZM48.6837 16.1419V16.4749H48.7854V16.1419H48.6837ZM48.7346 16.424H46.8396V16.5257H48.7346V16.424ZM49.2174 13.7081H49.1665V13.759H49.2174V13.7081ZM49.2174 13.3752V13.3243H49.1665V13.3752H49.2174ZM51.5421 13.3752H51.593V13.3243H51.5421V13.3752ZM51.5421 13.7081V13.759H51.593V13.7081H51.5421ZM50.5674 13.7081V13.6573H50.5166V13.7081H50.5674ZM50.5674 16.4749V16.5257H50.6183V16.4749H50.5674ZM50.1921 16.4749H50.1412V16.5257H50.1921V16.4749ZM50.1921 13.7081H50.2429V13.6573H50.1921V13.7081ZM49.2682 13.7081V13.3752H49.1665V13.7081H49.2682ZM49.2174 13.426H51.5421V13.3243H49.2174V13.426ZM51.4913 13.3752V13.7081H51.593V13.3752H51.4913ZM51.5421 13.6573H50.5674V13.759H51.5421V13.6573ZM50.5166 13.7081V16.4749H50.6183V13.7081H50.5166ZM50.5674 16.424H50.1921V16.5257H50.5674V16.424ZM50.2429 16.4749V13.7081H50.1412V16.4749H50.2429ZM50.1921 13.6573H49.2174V13.759H50.1921V13.6573ZM53.6955 13.3752H53.7463V13.3243H53.6955V13.3752ZM53.6955 16.4749V16.5257H53.7463V16.4749H53.6955ZM53.3201 16.4749H53.2693V16.5257H53.3201V16.4749ZM53.3201 13.3752V13.3243H53.2693V13.3752H53.3201ZM53.6446 13.3752V16.4749H53.7463V13.3752H53.6446ZM53.6955 16.424H53.3201V16.5257H53.6955V16.424ZM53.371 16.4749V13.3752H53.2693V16.4749H53.371ZM53.3201 13.426H53.6955V13.3243H53.3201V13.426ZM54.2786 13.7081H54.2277V13.759H54.2786V13.7081ZM54.2786 13.3752V13.3243H54.2277V13.3752H54.2786ZM56.6033 13.3752H56.6542V13.3243H56.6033V13.3752ZM56.6033 13.7081V13.759H56.6542V13.7081H56.6033ZM55.6286 13.7081V13.6573H55.5778V13.7081H55.6286ZM55.6286 16.4749V16.5257H55.6795V16.4749H55.6286ZM55.2533 16.4749H55.2024V16.5257H55.2533V16.4749ZM55.2533 13.7081H55.3041V13.6573H55.2533V13.7081ZM54.3294 13.7081V13.3752H54.2277V13.7081H54.3294ZM54.2786 13.426H56.6033V13.3243H54.2786V13.426ZM56.5525 13.3752V13.7081H56.6542V13.3752H56.5525ZM56.6033 13.6573H55.6286V13.759H56.6033V13.6573ZM55.5778 13.7081V16.4749H55.6795V13.7081H55.5778ZM55.6286 16.424H55.2533V16.5257H55.6286V16.424ZM55.3041 16.4749V13.7081H55.2024V16.4749H55.3041ZM55.2533 13.6573H54.2786V13.759H55.2533V13.6573ZM60.8196 15.7726L60.774 15.75L60.8196 15.7726ZM60.3338 16.3235L60.3608 16.3666L60.3338 16.3235ZM58.9232 16.3235L58.8961 16.3666L58.9232 16.3235ZM58.4373 15.7726L58.4829 15.75L58.4373 15.7726ZM60.3338 13.5265L60.3608 13.4834L60.3338 13.5265ZM60.8196 14.0774L60.774 14.1V14.1L60.8196 14.0774ZM60.4987 14.2454L60.4529 14.2675L60.453 14.2677L60.4987 14.2454ZM60.137 13.8262L60.11 13.8693L60.1101 13.8694L60.137 13.8262ZM59.1184 13.8262L59.0915 13.783L59.0914 13.7831L59.1184 13.8262ZM58.7567 14.2454L58.7109 14.2232L58.7108 14.2234L58.7567 14.2454ZM58.7567 15.6046L58.7108 15.6266L58.7109 15.6268L58.7567 15.6046ZM59.1184 16.0238L59.0914 16.0669L59.0915 16.067L59.1184 16.0238ZM60.137 16.0238L60.1101 15.9806L60.11 15.9807L60.137 16.0238ZM60.4987 15.6046L60.453 15.5823L60.4529 15.5825L60.4987 15.6046ZM60.9458 14.925C60.9458 15.2459 60.8879 15.5203 60.774 15.75L60.8652 15.7952C60.9874 15.5486 61.0475 15.258 61.0475 14.925H60.9458ZM60.774 15.75C60.6597 15.9805 60.5039 16.1567 60.3067 16.2804L60.3608 16.3666C60.5753 16.232 60.7433 16.0409 60.8652 15.7952L60.774 15.75ZM60.3067 16.2804C60.1097 16.404 59.8841 16.4664 59.6285 16.4664V16.5681C59.9015 16.5681 60.1461 16.5013 60.3608 16.3666L60.3067 16.2804ZM59.6285 16.4664C59.3728 16.4664 59.1472 16.404 58.9502 16.2804L58.8961 16.3666C59.1108 16.5013 59.3554 16.5681 59.6285 16.5681V16.4664ZM58.9502 16.2804C58.753 16.1567 58.5972 15.9805 58.4829 15.75L58.3918 15.7952C58.5136 16.0409 58.6816 16.232 58.8961 16.3666L58.9502 16.2804ZM58.4829 15.75C58.369 15.5203 58.3111 15.2459 58.3111 14.925H58.2094C58.2094 15.258 58.2695 15.5486 58.3918 15.7952L58.4829 15.75ZM58.3111 14.925C58.3111 14.6042 58.369 14.3297 58.4829 14.1L58.3918 14.0549C58.2695 14.3014 58.2094 14.592 58.2094 14.925H58.3111ZM58.4829 14.1C58.5972 13.8695 58.753 13.6933 58.9502 13.5696L58.8961 13.4834C58.6816 13.6181 58.5136 13.8091 58.3918 14.0549L58.4829 14.1ZM58.9502 13.5696C59.1472 13.446 59.3728 13.3837 59.6285 13.3837V13.2819C59.3554 13.2819 59.1108 13.3488 58.8961 13.4834L58.9502 13.5696ZM59.6285 13.3837C59.8841 13.3837 60.1097 13.446 60.3067 13.5696L60.3608 13.4834C60.1461 13.3488 59.9015 13.2819 59.6285 13.2819V13.3837ZM60.3067 13.5696C60.5039 13.6933 60.6597 13.8695 60.774 14.1L60.8652 14.0549C60.7433 13.8091 60.5753 13.6181 60.3608 13.4834L60.3067 13.5696ZM60.774 14.1C60.8879 14.3297 60.9458 14.6042 60.9458 14.925H61.0475C61.0475 14.592 60.9874 14.3014 60.8652 14.0549L60.774 14.1ZM60.6843 14.925C60.6843 14.6512 60.6385 14.4166 60.5445 14.2232L60.453 14.2677C60.5385 14.4436 60.5826 14.6621 60.5826 14.925H60.6843ZM60.5446 14.2234C60.4522 14.0313 60.3255 13.8837 60.1639 13.783L60.1101 13.8694C60.2532 13.9584 60.3677 14.0903 60.4529 14.2675L60.5446 14.2234ZM60.164 13.7831C60.0041 13.6829 59.8252 13.6331 59.6285 13.6331V13.7348C59.8071 13.7348 59.9672 13.7798 60.11 13.8693L60.164 13.7831ZM59.6285 13.6331C59.4317 13.6331 59.2523 13.6829 59.0915 13.783L59.1453 13.8694C59.2892 13.7798 59.4498 13.7348 59.6285 13.7348V13.6331ZM59.0914 13.7831C58.9308 13.8837 58.8043 14.0313 58.7109 14.2232L58.8024 14.2677C58.8887 14.0903 59.0033 13.9584 59.1454 13.8693L59.0914 13.7831ZM58.7108 14.2234C58.6179 14.4167 58.5726 14.6513 58.5726 14.925H58.6743C58.6743 14.662 58.7179 14.4435 58.8025 14.2675L58.7108 14.2234ZM58.5726 14.925C58.5726 15.1988 58.6179 15.4333 58.7108 15.6266L58.8025 15.5825C58.7179 15.4066 58.6743 15.188 58.6743 14.925H58.5726ZM58.7109 15.6268C58.8043 15.8187 58.9308 15.9663 59.0914 16.0669L59.1454 15.9807C59.0033 15.8917 58.8887 15.7597 58.8024 15.5823L58.7109 15.6268ZM59.0915 16.067C59.2523 16.1671 59.4317 16.217 59.6285 16.217V16.1152C59.4498 16.1152 59.2892 16.0702 59.1453 15.9806L59.0915 16.067ZM59.6285 16.217C59.8252 16.217 60.0041 16.1671 60.164 16.0669L60.11 15.9807C59.9672 16.0702 59.8071 16.1152 59.6285 16.1152V16.217ZM60.1639 16.067C60.3255 15.9664 60.4522 15.8187 60.5446 15.6266L60.4529 15.5825C60.3677 15.7598 60.2532 15.8916 60.1101 15.9806L60.1639 16.067ZM60.5445 15.6268C60.6385 15.4335 60.6843 15.1988 60.6843 14.925H60.5826C60.5826 15.188 60.5385 15.4064 60.453 15.5823L60.5445 15.6268ZM64.0858 13.3752H64.1366V13.3243H64.0858V13.3752ZM64.0858 16.4749V16.5257H64.1366V16.4749H64.0858ZM63.7225 16.4749L63.6807 16.5039L63.6959 16.5257H63.7225V16.4749ZM62.0334 14.0411L62.0752 14.0121L62.06 13.9903H62.0334V14.0411ZM62.0032 14.0411V13.9903H61.9523V14.0411H62.0032ZM62.0032 16.4749V16.5257H62.054V16.4749H62.0032ZM61.6278 16.4749H61.5769V16.5257H61.6278V16.4749ZM61.6278 13.3752V13.3243H61.5769V13.3752H61.6278ZM61.9911 13.3752L62.0328 13.3462L62.0176 13.3243H61.9911V13.3752ZM63.6862 15.815L63.6444 15.844L63.6596 15.8658H63.6862V15.815ZM63.7165 15.815V15.8658H63.7673V15.815H63.7165ZM63.7165 13.3752V13.3243H63.6656V13.3752H63.7165ZM64.0349 13.3752V16.4749H64.1366V13.3752H64.0349ZM64.0858 16.424H63.7225V16.5257H64.0858V16.424ZM63.7643 16.4459L62.0752 14.0121L61.9916 14.0701L63.6807 16.5039L63.7643 16.4459ZM62.0334 13.9903H62.0032V14.092H62.0334V13.9903ZM61.9523 14.0411V16.4749H62.054V14.0411H61.9523ZM62.0032 16.424H61.6278V16.5257H62.0032V16.424ZM61.6787 16.4749V13.3752H61.5769V16.4749H61.6787ZM61.6278 13.426H61.9911V13.3243H61.6278V13.426ZM61.9493 13.4042L63.6444 15.844L63.728 15.7859L62.0328 13.3462L61.9493 13.4042ZM63.6862 15.8658H63.7165V15.7641H63.6862V15.8658ZM63.7673 15.815V13.3752H63.6656V15.815H63.7673ZM63.7165 13.426H64.0858V13.3243H63.7165V13.426Z" fill="white"/>
<path d="M60.5129 26.1783C59.8388 26.1799 59.1804 26.3813 58.6208 26.7571C58.0613 27.1329 57.6257 27.6662 57.3692 28.2895C57.1128 28.9128 57.0469 29.5982 57.1799 30.259C57.313 30.9198 57.639 31.5263 58.1167 32.0018C58.5944 32.4773 59.2025 32.8004 59.8638 32.9304C60.5252 33.0603 61.2103 32.9912 61.8324 32.7318C62.4546 32.4724 62.9858 32.0344 63.359 31.473C63.7321 30.9117 63.9304 30.2523 63.9289 29.5783C63.9354 29.1287 63.8514 28.6823 63.6818 28.2658C63.5122 27.8493 63.2606 27.4711 62.9419 27.1539C62.6231 26.8367 62.2438 26.5868 61.8265 26.4192C61.4092 26.2516 60.9625 26.1697 60.5129 26.1783ZM60.5129 31.6423C60.0997 31.6712 59.6875 31.5751 59.3296 31.3666C58.9718 31.1581 58.685 30.8468 58.5065 30.4731C58.328 30.0994 58.266 29.6806 58.3286 29.2712C58.3912 28.8618 58.5756 28.4808 58.8576 28.1775C59.1397 27.8743 59.5065 27.6629 59.9103 27.5709C60.3141 27.4789 60.7362 27.5105 61.1218 27.6616C61.5074 27.8127 61.8387 28.0762 62.0725 28.4181C62.3063 28.7599 62.4319 29.1642 62.4329 29.5783C62.4457 29.8407 62.406 30.1031 62.3158 30.3498C62.2257 30.5966 62.0871 30.8229 61.9082 31.0152C61.7292 31.2076 61.5136 31.3622 61.2739 31.4699C61.0343 31.5776 60.7755 31.6362 60.5129 31.6423ZM53.0569 26.1783C52.3828 26.1799 51.7244 26.3813 51.1648 26.7571C50.6053 27.1329 50.1697 27.6662 49.9132 28.2895C49.6568 28.9128 49.5909 29.5982 49.7239 30.259C49.857 30.9198 50.183 31.5263 50.6607 32.0018C51.1384 32.4773 51.7465 32.8004 52.4078 32.9304C53.0692 33.0603 53.7543 32.9912 54.3764 32.7318C54.9986 32.4724 55.5298 32.0344 55.903 31.473C56.2761 30.9117 56.4744 30.2523 56.4729 29.5783C56.4794 29.1287 56.3954 28.6823 56.2258 28.2658C56.0562 27.8493 55.8046 27.4711 55.4859 27.1539C55.1671 26.8367 54.7878 26.5868 54.3705 26.4192C53.9532 26.2516 53.5065 26.1697 53.0569 26.1783ZM53.0569 31.6423C52.6437 31.6712 52.2315 31.5751 51.8736 31.3666C51.5158 31.1581 51.229 30.8468 51.0505 30.4731C50.872 30.0994 50.81 29.6806 50.8726 29.2712C50.9352 28.8618 51.1196 28.4808 51.4016 28.1775C51.6837 27.8743 52.0505 27.6629 52.4543 27.5709C52.8581 27.4789 53.2802 27.5105 53.6658 27.6616C54.0514 27.8127 54.3827 28.0762 54.6165 28.4181C54.8503 28.7599 54.9759 29.1642 54.9769 29.5783C54.9897 29.8407 54.95 30.1031 54.8598 30.3498C54.7697 30.5966 54.6311 30.8229 54.4522 31.0152C54.2732 31.2076 54.0576 31.3622 53.8179 31.4699C53.5783 31.5776 53.3195 31.6362 53.0569 31.6423ZM44.1929 27.2263V28.6663H47.6489C47.5947 29.3446 47.3127 29.9845 46.8489 30.4823C46.5022 30.8355 46.0852 31.112 45.6249 31.2939C45.1647 31.4758 44.6713 31.5591 44.1769 31.5383C43.1584 31.5383 42.1817 31.1337 41.4616 30.4136C40.7414 29.6935 40.3369 28.7167 40.3369 27.6983C40.3369 26.6799 40.7414 25.7032 41.4616 24.983C42.1817 24.2629 43.1584 23.8583 44.1769 23.8583C45.1532 23.8438 46.096 24.2146 46.8009 24.8903L47.8169 23.8743C47.34 23.4027 46.7739 23.031 46.1516 22.781C45.5293 22.531 44.8634 22.4077 44.1929 22.4183C43.4817 22.3906 42.7722 22.5068 42.107 22.7599C41.4417 23.013 40.8344 23.3977 40.3215 23.8911C39.8085 24.3845 39.4004 24.9764 39.1217 25.6313C38.8429 26.2861 38.6992 26.9906 38.6992 27.7023C38.6992 28.414 38.8429 29.1185 39.1217 29.7733C39.4004 30.4282 39.8085 31.0201 40.3215 31.5135C40.8344 32.0069 41.4417 32.3917 42.107 32.6447C42.7722 32.8978 43.4817 33.014 44.1929 32.9863C44.8772 33.0136 45.5596 32.8959 46.1952 32.6408C46.8308 32.3858 47.4053 31.9991 47.8809 31.5063C48.721 30.5834 49.1686 29.3697 49.1289 28.1223C49.1317 27.8221 49.1076 27.5222 49.0569 27.2263H44.1929ZM80.4409 28.3463C80.2322 27.7325 79.8421 27.1965 79.3221 26.8094C78.8021 26.4222 78.1767 26.2022 77.5289 26.1783C77.0913 26.1775 76.6581 26.2664 76.2563 26.4395C75.8544 26.6127 75.4923 26.8665 75.1924 27.1851C74.8924 27.5038 74.6611 27.8806 74.5126 28.2922C74.364 28.7038 74.3015 29.1416 74.3289 29.5783C74.322 30.3086 74.5516 31.0215 74.9834 31.6105C75.4151 32.1996 76.0258 32.6331 76.7243 32.8464C77.4227 33.0597 78.1715 33.0414 78.8586 32.7941C79.5458 32.5468 80.1345 32.0838 80.5369 31.4743L79.3769 30.6743C79.2039 30.9625 78.9587 31.2005 78.6654 31.3647C78.3721 31.5289 78.041 31.6136 77.7049 31.6103C77.3581 31.6246 77.0152 31.5337 76.721 31.3495C76.4269 31.1653 76.1954 30.8965 76.0569 30.5783L80.6089 28.6983L80.4409 28.3463ZM75.8009 29.4823C75.7846 29.2338 75.8182 28.9846 75.8995 28.7492C75.9808 28.5138 76.1082 28.297 76.2744 28.1115C76.4405 27.926 76.642 27.7755 76.867 27.6689C77.092 27.5622 77.3361 27.5015 77.5849 27.4903C77.8426 27.4746 78.0993 27.5353 78.3227 27.6648C78.5462 27.7943 78.7264 27.9868 78.8409 28.2183L75.8009 29.4823ZM72.1049 32.7783H73.6009V22.7783H72.1049V32.7783ZM69.6569 26.9383H69.6009C69.3774 26.6838 69.1016 26.4806 68.7923 26.3425C68.483 26.2044 68.1475 26.1348 67.8089 26.1383C66.9346 26.1807 66.1102 26.5578 65.5064 27.1916C64.9027 27.8253 64.5659 28.667 64.5659 29.5423C64.5659 30.4176 64.9027 31.2593 65.5064 31.893C66.1102 32.5268 66.9346 32.9039 67.8089 32.9463C68.148 32.9531 68.4845 32.8849 68.7943 32.7466C69.1041 32.6083 69.3795 32.4034 69.6009 32.1463H69.6569V32.6343C69.6569 33.9383 68.9609 34.6343 67.8409 34.6343C67.4667 34.6261 67.1035 34.5069 66.7972 34.2918C66.491 34.0767 66.2556 33.7755 66.1209 33.4263L64.8249 33.9623C65.0645 34.5641 65.4811 35.079 66.0196 35.439C66.5581 35.7989 67.1932 35.987 67.8409 35.9783C69.5929 35.9783 71.0409 34.9463 71.0409 32.4343V26.3783H69.6569V26.9383ZM67.9369 31.6423C67.4127 31.6096 66.9207 31.3784 66.5611 30.9956C66.2015 30.6129 66.0013 30.1075 66.0013 29.5823C66.0013 29.0571 66.2015 28.5517 66.5611 28.169C66.9207 27.7862 67.4127 27.555 67.9369 27.5223C68.193 27.5334 68.4444 27.5958 68.676 27.706C68.9075 27.8162 69.1145 27.9718 69.2847 28.1636C69.4549 28.3555 69.5847 28.5796 69.6665 28.8226C69.7483 29.0656 69.7804 29.3226 69.7609 29.5783C69.7827 29.8349 69.7523 30.0932 69.6714 30.3376C69.5905 30.5821 69.4609 30.8076 69.2904 31.0005C69.1199 31.1935 68.9121 31.3498 68.6794 31.4601C68.4468 31.5704 68.1941 31.6324 67.9369 31.6423ZM87.4489 22.7783H83.8649V32.7783H85.3609V28.9863H87.4489C87.8752 29.0169 88.3033 28.9594 88.7065 28.8173C89.1096 28.6752 89.4792 28.4515 89.7921 28.1603C90.105 27.8691 90.3545 27.5165 90.5252 27.1246C90.6958 26.7326 90.7839 26.3098 90.7839 25.8823C90.7839 25.4548 90.6958 25.032 90.5252 24.64C90.3545 24.2481 90.105 23.8955 89.7921 23.6043C89.4792 23.3131 89.1096 23.0894 88.7065 22.9473C88.3033 22.8052 87.8752 22.7477 87.4489 22.7783ZM87.4489 27.5783H85.3609V24.1703H87.4809C87.7057 24.1703 87.9283 24.2146 88.136 24.3006C88.3437 24.3867 88.5325 24.5128 88.6914 24.6717C88.8504 24.8307 88.9765 25.0194 89.0625 25.2272C89.1486 25.4349 89.1929 25.6575 89.1929 25.8823C89.1929 26.1071 89.1486 26.3298 89.0625 26.5375C88.9765 26.7452 88.8504 26.9339 88.6914 27.0929C88.5325 27.2518 88.3437 27.378 88.136 27.464C87.9283 27.55 87.7057 27.5943 87.4809 27.5943L87.4489 27.5783ZM96.6809 26.1463C96.1361 26.1127 95.5934 26.2395 95.1199 26.5111C94.6464 26.7827 94.2629 27.1871 94.0169 27.6743L95.3369 28.2263C95.4702 27.9858 95.6704 27.7891 95.9132 27.6599C96.1559 27.5307 96.4309 27.4746 96.7049 27.4983C96.8948 27.4761 97.0872 27.492 97.2709 27.545C97.4546 27.5979 97.6259 27.687 97.7749 27.8069C97.9238 27.9268 98.0474 28.0751 98.1384 28.2433C98.2294 28.4114 98.286 28.596 98.3049 28.7863V28.8823C97.8238 28.6294 97.2883 28.4976 96.7449 28.4983C95.3209 28.4983 93.8649 29.2983 93.8649 30.7543C93.8789 31.0638 93.9551 31.3673 94.0887 31.6467C94.2224 31.9262 94.4109 32.176 94.643 32.3812C94.875 32.5864 95.146 32.7429 95.4397 32.8413C95.7335 32.9398 96.044 32.9782 96.3529 32.9543C96.7283 32.9751 97.1024 32.8956 97.437 32.7241C97.7716 32.5526 98.0546 32.2952 98.2569 31.9783H98.3049V32.7783H99.7449V28.9303C99.7449 27.1783 98.4169 26.1623 96.7129 26.1623L96.6809 26.1463ZM96.4969 31.6263C96.0089 31.6263 95.3289 31.3783 95.3289 30.7783C95.3289 29.9783 96.1769 29.7063 96.9289 29.7063C97.4041 29.6946 97.8738 29.8106 98.2889 30.0423C98.2386 30.4768 98.0326 30.8783 97.709 31.1725C97.3854 31.4667 96.9661 31.6336 96.5289 31.6423L96.4969 31.6263ZM104.993 26.3783L103.281 30.7143H103.233L101.457 26.3783H99.8569L102.521 32.4423L101.001 35.8103H102.561L106.657 26.3783H104.993ZM91.5529 32.7783H93.0409V22.7783H91.5529V32.7783Z" fill="white"/>
<path d="M22.5747 24.3147L14.0547 33.3547C14.1478 33.6966 14.3182 34.0126 14.5528 34.2781C14.7874 34.5437 15.0799 34.7518 15.4078 34.8863C15.7356 35.0209 16.09 35.0783 16.4435 35.054C16.797 35.0298 17.1403 34.9247 17.4467 34.7467L27.0467 29.2107L22.5747 24.3147Z" fill="#EA4335"/>
<path d="M31.1926 22.7782L27.0486 20.3782L22.3926 24.5302L27.0646 29.2102L31.1846 26.8102C31.5508 26.614 31.857 26.3222 32.0704 25.9657C32.2839 25.6093 32.3966 25.2016 32.3966 24.7862C32.3966 24.3707 32.2839 23.963 32.0704 23.6066C31.857 23.2502 31.5508 22.9583 31.1846 22.7622L31.1926 22.7782Z" fill="#FBBC04"/>
<path d="M14.0568 16.2024C14.0145 16.3914 13.9957 16.5848 14.0008 16.7784V32.7784C14.0022 32.9783 14.0291 33.1773 14.0808 33.3704L22.8808 24.5704L14.0568 16.2024Z" fill="#4285F4"/>
<path d="M22.6392 24.7785L27.0473 20.3705L17.4472 14.8185C17.0866 14.6041 16.6748 14.4908 16.2552 14.4905C15.7491 14.4919 15.2575 14.6594 14.8557 14.9672C14.454 15.275 14.1643 15.7062 14.0312 16.1945L22.6392 24.7785Z" fill="#34A853"/>
</g>
<defs>
<clipPath id="clip0_404_23689">
<rect width="108" height="32" fill="white" transform="translate(6 8.77856)"/>
</clipPath>
</defs>
</svg>
