<svg width="175" height="32" viewBox="0 0 175 32" fill="none" xmlns="http://www.w3.org/2000/svg">
<path fill-rule="evenodd" clip-rule="evenodd" d="M5.52163 0C7.02313 0 8.31474 0.76685 9.07356 1.91712C11.1724 0.910634 13.5296 0.351473 16.016 0.351473C18.5023 0.351473 20.8595 0.92661 22.9584 1.9331C23.701 0.782826 25.0088 0.015976 26.5103 0.015976C28.8513 0.015976 30.7403 1.88517 30.7403 4.18572C30.7403 5.4638 30.1591 6.58213 29.2711 7.34898C30.9986 9.87319 32.0158 12.9246 31.9998 16.1677C31.9998 24.9066 24.815 32 15.9998 32C7.18458 32 0 24.9066 0 16.1677C0 12.8927 1.01714 9.84124 2.74467 7.31702C1.85669 6.56615 1.29161 5.43185 1.29161 4.16975C1.29161 1.8692 3.19673 0 5.52163 0ZM15.9998 1.5976C13.6911 1.5976 11.5115 2.12481 9.57406 3.0674C7.24916 4.18572 5.24716 5.91113 3.7941 8.01997C2.19574 10.3525 1.25932 13.1643 1.25932 16.1997C1.25932 24.2516 7.87882 30.8018 16.016 30.8018C24.1531 30.8018 30.7726 24.2516 30.7565 16.1997C30.7565 13.1643 29.82 10.3525 28.2217 8.01997C26.7686 5.91113 24.7828 4.18572 22.4417 3.0674C20.4882 2.12481 18.3086 1.5976 15.9998 1.5976ZM19.9231 20.2257C19.9231 22.1108 18.1633 23.6445 15.9837 23.6445C13.8041 23.6445 12.0604 22.1108 12.0604 20.2257H19.9231ZM19.6163 9.47379C20.8111 7.89216 23.8948 8.43535 25.2833 9.34598C26.6717 10.2406 28.367 12.2217 28.0925 14.9216C27.818 17.6216 25.6869 19.2991 24.5729 19.2991C23.4589 19.2831 22.9099 18.7239 22.5709 17.366C22.2318 16.008 21.0855 14.4423 19.584 12.7649C18.0987 11.0874 19.6163 9.47379 19.6163 9.47379ZM6.68408 9.33C8.05641 8.41937 11.1401 7.89216 12.351 9.45781C12.351 9.45781 13.8687 11.0714 12.3833 12.7489C10.898 14.4264 9.73551 15.992 9.39646 17.35C9.05741 18.7239 8.50848 19.2831 7.39446 19.2831C6.28045 19.2831 4.13315 17.6056 3.87483 14.9056C3.60036 12.2057 5.2956 10.2406 6.68408 9.33ZM15.9837 16.5032C16.7102 16.5032 18.7606 16.6311 18.7606 17.2861C18.7606 18.4683 16.2258 19.315 15.9837 19.2511C15.7415 19.315 13.2067 18.4683 13.2067 17.2861C13.2067 16.6311 15.2733 16.5032 15.9837 16.5032ZM22.1027 11.1353C21.6506 11.1353 21.2631 11.5027 21.2631 11.9661C21.2631 12.4294 21.6345 12.7968 22.1027 12.7968C22.5547 12.7968 22.9261 12.4134 22.9422 11.9661C22.9422 11.5027 22.5709 11.1353 22.1027 11.1353ZM10.123 11.1353C9.65478 11.1353 9.28344 11.5027 9.28344 11.9661C9.28344 12.4294 9.65478 12.7968 10.123 12.7968C10.5751 12.7968 10.9464 12.4134 10.9625 11.9661C10.9625 11.5027 10.5912 11.1353 10.123 11.1353ZM45.0753 4.8808C44.1337 4.8808 43.6629 5.52554 43.6629 6.48581V9.17455H46.7971V12.0553H43.6629V24.2233H40.5288V12.0553H38.0135V9.17455H40.5154V6.80133C40.5154 3.92053 42.0892 2 45.2233 2L46.7971 2.31552V5.19631L45.0753 4.8808ZM54.935 8.85904C59.0107 8.85904 62.6291 12.0553 62.6291 16.7058C62.6291 21.3425 59.0242 24.5525 54.935 24.5525C50.8593 24.5525 47.2409 21.3562 47.2409 16.7058C47.2409 12.0553 50.8459 8.85904 54.935 8.85904ZM54.935 21.658C57.9212 21.658 59.4815 19.4219 59.4815 16.6921C59.4815 13.9759 57.9077 11.7261 54.935 11.7261C51.9489 11.7261 50.3884 13.9622 50.3884 16.6921C50.3751 19.4219 51.9489 21.658 54.935 21.658ZM71.6951 8.85904C75.7708 8.85904 79.3892 12.0553 79.3892 16.7058C79.3892 21.3425 75.7843 24.5525 71.6951 24.5525C67.6194 24.5525 64.0011 21.3562 64.0011 16.7058C64.0011 12.0553 67.606 8.85904 71.6951 8.85904ZM71.6951 21.658C74.6813 21.658 76.2416 19.4219 76.2416 16.6921C76.2416 13.9759 74.6678 11.7261 71.6951 11.7261C68.709 11.7261 67.1486 13.9622 67.1486 16.6921C67.1352 19.4219 68.709 21.658 71.6951 21.658ZM92.531 10.6287L92.6924 10.464V2.01372H95.8265V24.2233H93.0018L92.6924 22.9475L92.531 22.7829L92.3696 22.9475C91.428 23.9078 89.8542 24.5525 88.2939 24.5525C84.2182 24.5525 80.7612 21.3562 80.7612 16.7058C80.7612 12.0691 84.2182 8.85904 88.2939 8.85904C89.8273 8.85904 91.428 9.50378 92.3696 10.464L92.531 10.6287ZM88.4553 11.7398C85.4691 11.7398 83.8684 13.9759 83.8684 16.7058C83.8684 19.4219 85.4691 21.6717 88.4553 21.6717C91.1186 21.6717 93.0018 19.4357 93.0018 16.7058C93.0018 13.9759 91.1186 11.7398 88.4553 11.7398ZM102.27 22.7692L102.081 22.9338V31H98.9741V9.17455H101.799L102.081 10.4503L102.27 10.6149L102.431 10.4503C103.373 9.49007 104.946 8.84531 106.507 8.84531C110.582 8.84531 114.039 12.0416 114.039 16.6921C114.039 21.3288 110.582 24.5388 106.507 24.5388C104.973 24.5388 103.373 23.894 102.431 22.9338L102.27 22.7692ZM106.345 21.658C109.331 21.658 110.892 19.4219 110.892 16.6921C110.892 13.9759 109.318 11.7261 106.345 11.7261C103.682 11.7261 101.799 13.9622 101.799 16.6921C101.799 19.4219 103.682 21.658 106.345 21.658ZM115.506 19.8609C115.506 16.7469 118.075 14.8813 121.949 14.8813H124.518V14.2228C124.518 12.412 123.307 11.5752 121.626 11.5752C120.267 11.5752 119.353 12.2337 118.855 13.5918L116.044 12.9882C116.662 10.4229 118.815 8.80416 121.653 8.80416C125.607 8.80416 127.585 10.7933 127.585 14.799V24.2233H124.989L124.693 22.2342C123.657 23.7157 122.124 24.4702 120.079 24.4702C117.456 24.4702 115.506 22.8789 115.506 19.8609ZM120.617 21.6854C121.653 21.6854 122.567 21.3562 123.334 20.6977C124.128 19.9981 124.518 19.0653 124.518 17.8307V17.5014H121.828C119.931 17.5014 118.761 18.4068 118.761 19.8472C118.747 20.9309 119.406 21.6854 120.617 21.6854ZM137.081 11.7261C135.225 11.7261 133.692 13.2625 133.624 15.1145V24.2096H130.49V9.17455H133.301L133.611 10.4503L133.772 10.6149L133.934 10.4503C134.566 9.49007 136.126 8.84531 137.391 8.84531C141.157 8.84531 143.349 11.4106 143.349 14.9224V24.2096H140.215V14.9224C140.121 12.8784 139.153 11.7261 137.081 11.7261ZM157.137 10.6287L157.298 10.464V2.01372H160.432V24.2233H157.608L157.298 22.9475L157.137 22.7829L156.975 22.9475C156.034 23.9078 154.46 24.5525 152.9 24.5525C148.824 24.5525 145.367 21.3562 145.367 16.7058C145.367 12.0691 148.824 8.85904 152.9 8.85904C154.433 8.85904 156.034 9.50378 156.975 10.464L157.137 10.6287ZM153.061 11.7398C150.075 11.7398 148.474 13.9759 148.474 16.7058C148.474 19.4219 150.075 21.6717 153.061 21.6717C155.725 21.6717 157.608 19.4357 157.608 16.7058C157.608 13.9759 155.725 11.7398 153.061 11.7398ZM162.921 19.8609C162.921 16.7469 165.49 14.8813 169.364 14.8813H171.933V14.2228C171.933 12.412 170.723 11.5752 169.041 11.5752C167.683 11.5752 166.768 12.2337 166.27 13.5918L163.459 12.9882C164.078 10.4229 166.23 8.80416 169.068 8.80416C173.023 8.80416 175 10.7933 175 14.799V24.2233H172.404L172.108 22.2342C171.072 23.7157 169.539 24.4702 167.494 24.4702C164.871 24.4702 162.921 22.8789 162.921 19.8609ZM168.032 21.6854C169.068 21.6854 169.983 21.3562 170.749 20.6977C171.543 19.9981 171.933 19.0653 171.933 17.8307V17.5014H169.243C167.346 17.5014 166.176 18.4068 166.176 19.8472C166.176 20.9309 166.822 21.6854 168.032 21.6854Z" fill="#FF2B85"/>
</svg>
