<svg width="32" height="32" viewBox="0 0 32 32" fill="none" xmlns="http://www.w3.org/2000/svg">
<circle cx="16" cy="16" r="15.5" fill="white" stroke="#DCDCDC"/>
<path fill-rule="evenodd" clip-rule="evenodd" d="M22.244 10.8534L22.244 10.8535L22.2546 10.8543C22.926 10.9058 23.2823 11.0329 23.4785 11.1495C23.6394 11.245 23.7805 11.3832 23.9151 11.6872C24.0674 12.0312 24.1978 12.5618 24.2803 13.3952C24.3619 14.2196 24.3884 15.2402 24.3884 16.5208C24.3884 17.8013 24.362 18.8277 24.2802 19.6594C24.1975 20.5006 24.0667 21.0403 23.9129 21.3908C23.7763 21.702 23.6362 21.8349 23.4869 21.9224C23.3032 22.0301 22.9594 22.1508 22.297 22.1847L22.29 22.1851C19.3487 22.348 12.7452 22.3483 9.78863 22.1861C9.12808 22.1338 8.77619 22.0078 8.58157 21.8922C8.42069 21.7966 8.27959 21.6585 8.14497 21.3545C7.99265 21.0104 7.86228 20.4798 7.77977 19.6465C7.69815 18.8221 7.67167 17.8015 7.67167 16.5208C7.67167 15.2402 7.69815 14.2196 7.77977 13.3952C7.86228 12.5618 7.99265 12.0312 8.14497 11.6872C8.27959 11.3832 8.42069 11.245 8.58157 11.1495C8.77784 11.0329 9.13406 10.9058 9.80551 10.8543L9.80552 10.8543L9.8161 10.8534C12.733 10.6111 19.3271 10.6111 22.244 10.8534ZM6 16.5208C6 21.6875 6.41792 23.6042 9.67768 23.8542C12.6867 24.0208 19.3734 24.0208 22.3824 23.8542C25.6422 23.6875 26.0601 21.6875 26.0601 16.5208C26.0601 11.3542 25.6422 9.4375 22.3824 9.1875C19.3734 8.9375 12.6867 8.9375 9.67768 9.1875C6.41792 9.4375 6 11.3542 6 16.5208ZM14.7312 19.2507C14.1755 19.5278 13.5225 19.1236 13.5225 18.5027V14.5372C13.5225 13.9163 14.1755 13.5122 14.7312 13.7892L18.7086 15.7719C19.3258 16.0796 19.3258 16.9603 18.7086 17.268L14.7312 19.2507Z" fill="#E21B70"/>
</svg>
